<svg xmlns="http://www.w3.org/2000/svg" viewBox="0 0 1200 400" width="1200" height="400" role="img" aria-label="A black hole: its shadow rimmed by a bright photon ring, an accretion disc seen almost edge-on that runs blue-white at the inner orbits and crimson at the outer ones, its far side lensed up over the top, and a starfield smeared into arcs around it.">
<defs><linearGradient id="b0" x1="0" y1="0" x2="1" y2="0"><stop offset="0" stop-color="#756270"/><stop offset="0.34" stop-color="#b9bcc9"/><stop offset="0.72" stop-color="#d6f2ff"/><stop offset="1" stop-color="#edf9ff"/></linearGradient><linearGradient id="b1" x1="0" y1="0" x2="1" y2="0"><stop offset="0" stop-color="#645a70"/><stop offset="0.34" stop-color="#97abc9"/><stop offset="0.72" stop-color="#a9dcff"/><stop offset="1" stop-color="#d8efff"/></linearGradient><linearGradient id="b2" x1="0" y1="0" x2="1" y2="0"><stop offset="0" stop-color="#7c6070"/><stop offset="0.34" stop-color="#c7b7c9"/><stop offset="0.72" stop-color="#e8ecff"/><stop offset="1" stop-color="#f5f6ff"/></linearGradient><linearGradient id="b3" x1="0" y1="0" x2="1" y2="0"><stop offset="0" stop-color="#856159"/><stop offset="0.34" stop-color="#d8b89d"/><stop offset="0.72" stop-color="#ffeec4"/><stop offset="1" stop-color="#fff7e4"/></linearGradient><linearGradient id="b4" x1="0" y1="0" x2="1" y2="0"><stop offset="0" stop-color="#855643"/><stop offset="0.34" stop-color="#d8a371"/><stop offset="0.72" stop-color="#ffd28a"/><stop offset="1" stop-color="#ffebca"/></linearGradient><linearGradient id="b5" x1="0" y1="0" x2="1" y2="0"><stop offset="0" stop-color="#854734"/><stop offset="0.34" stop-color="#d88652"/><stop offset="0.72" stop-color="#ffab62"/><stop offset="1" stop-color="#ffd9b8"/></linearGradient><linearGradient id="b6" x1="0" y1="0" x2="1" y2="0"><stop offset="0" stop-color="#85362c"/><stop offset="0.34" stop-color="#d86341"/><stop offset="0.72" stop-color="#ff7d4c"/><stop offset="1" stop-color="#ffc4ae"/></linearGradient><linearGradient id="b7" x1="0" y1="0" x2="1" y2="0"><stop offset="0" stop-color="#852627"/><stop offset="0.34" stop-color="#d84338"/><stop offset="0.72" stop-color="#ff5340"/><stop offset="1" stop-color="#ffb2a9"/></linearGradient><linearGradient id="b8" x1="0" y1="0" x2="1" y2="0"><stop offset="0" stop-color="#7b192a"/><stop offset="0.34" stop-color="#c5293e"/><stop offset="0.72" stop-color="#e63147"/><stop offset="1" stop-color="#f4a2ac"/></linearGradient><linearGradient id="b9" x1="0" y1="0" x2="1" y2="0"><stop offset="0" stop-color="#691323"/><stop offset="0.34" stop-color="#a01d30"/><stop offset="0.72" stop-color="#b52235"/><stop offset="1" stop-color="#de9ca4"/></linearGradient><radialGradient id="halo"><stop offset="0" stop-color="#ff7a52" stop-opacity="0.11"/><stop offset="0.42" stop-color="#ff2d46" stop-opacity="0.045"/><stop offset="1" stop-color="#ff2d46" stop-opacity="0"/></radialGradient></defs>
<rect width="1200" height="400" fill="#05060f"/>
<circle cx="600" cy="200" r="340" fill="url(#halo)"/>
<g opacity="0"><path d="M1101.7 370h0M526.1 80.6h0M923.2 87.3h0M813.4 69h0M653.6 288.8h0M1066.9 182.8h0M311 49.2h0M849.6 327h0M391.5 60.7h0M1125.9 74h0M75.5 168.3h0M199.6 95.5h0M1158.8 315.4h0M261.8 48.6h0M832.7 222.7h0M1143.5 350.5h0M684.4 155.7h0M987.5 50.9h0M393.1 223.5h0M15 153.5h0M899.1 162.2h0M568 297.8h0M640.2 100.2h0M832.9 154.6h0M603.2 39.2h0M332.3 304.1h0M1024.7 108.5h0M242.9 225h0M351.4 37.5h0M58.4 56.3h0M1172.9 62.3h0M691.9 314.3h0M390 57.6h0M1180.2 297.4h0M531.7 280.4h0M415.9 85.7h0M254.6 164.3h0M982.6 228.8h0M665.3 270.8h0M1167.6 183.5h0M863.3 62.6h0M147.5 17h0M401.3 294.1h0M84.3 306.3h0M1154 52.7h0M990.4 375.7h0M863.4 375.7h0M617.5 90.4h0M1044.6 85.1h0M81.7 261.6h0M955.1 252.1h0M386.9 267.1h0M252.2 316.2h0M177 63.1h0M748.4 169.8h0M647 224.9h0M1002.5 111h0M984 283.2h0M144.3 173.5h0M919.8 46.7h0M547.2 57.6h0M396.3 225.3h0M929.4 290.5h0M92.3 151.8h0M910.6 179.5h0M1049.6 368.6h0M1127.8 250.6h0M217.1 17h0M1076.6 148.8h0M308.5 363.6h0M825.2 385.7h0M400.9 217.2h0M895.3 352.7h0M86.4 58.9h0M145.3 175.4h0M1092.9 389.1h0M1178.7 24.9h0M933.7 216.6h0M1047.8 229.2h0M365.8 194.6h0M1158.7 339.6h0M1145.8 338.4h0M319.6 321.6h0M234.7 357h0M962.3 352.4h0M842.7 229.8h0M1057.5 95.3h0M924.4 59.6h0M81 51.7h0M660 197.7h0M1040.1 220.5h0M290.6 241.6h0M396.7 366.8h0M941 94.5h0M783.6 19h0M830.3 355.7h0M244.8 274.2h0M522.9 279.2h0M462.1 39.8h0M48 316.1h0M1126.2 88h0M1026.4 306.5h0M194.7 286.7h0M182 362.5h0M716.2 225.7h0M915.4 181h0M402.7 300.9h0M820.7 133.2h0M417.8 268.2h0M243.8 72.3h0M102.6 37.8h0M278.4 240.2h0M298.7 135.2h0M1174.4 78.6h0M545.2 262.4h0M13.4 336.2h0M912.3 274h0M776 376.8h0M145.8 294.3h0M848.4 248.8h0M1148.9 279.1h0M104.9 224.7h0M774.5 236.9h0" stroke="#ffffff" stroke-width="1.5" stroke-linecap="round" fill="none" opacity="0.6"/><animate attributeName="opacity" values="0;0;1;1;0" keyTimes="0;0.02;0.16;0.93;1" dur="9s" repeatCount="indefinite"/></g>
<g opacity="0"><path d="M485 205.9h0M719.6 268h0M683.5 347.1h0M106.2 172h0M1119.8 116.9h0M137.7 351.8h0M647.9 394.4h0M666.2 312.1h0M502.1 360.9h0M202.5 261.2h0M955.8 386.1h0M1136.8 169.7h0M347.8 130h0M962.7 113.6h0M905.6 346.9h0M60.3 316.3h0M219.8 203.5h0M1110.6 122.1h0M643.2 349.4h0M643.3 76.8h0M426.2 387.5h0M50.2 158.6h0M565.1 51.8h0M642.4 69.5h0M1087 365.9h0M802.7 49.1h0M248.3 200.3h0M200.4 348.4h0M886.9 186.2h0M52.5 361.6h0M832.7 47.6h0M812.8 74.4h0M872.6 321.8h0M728.9 326.9h0M423.3 43.9h0M1017.1 299.8h0M288.2 252.9h0M863.5 9.3h0M583.7 31.5h0M771.7 265.9h0M663.1 129.8h0M281.3 92h0M1146 29.9h0M237.2 210.2h0M1121.6 67.5h0M758.3 156.6h0M874.8 157.2h0M923.5 106.4h0M844.2 16.1h0" stroke="#bcd8ff" stroke-width="1.8" stroke-linecap="round" fill="none" opacity="0.7"/><animate attributeName="opacity" values="0;0;1;1;0" keyTimes="0;0.07;0.21;0.93;1" dur="9s" repeatCount="indefinite"/></g>
<g opacity="0"><path d="M30.4 126.9h0M134.2 382.5h0M561.2 304.5h0M29.1 309.1h0M235.7 38.4h0M700.3 221.7h0M211.5 180.7h0M274.3 32.7h0M450.6 11.6h0M197.6 26.2h0M299 384.6h0M196.6 91.2h0M992.5 24.8h0M57.9 289.3h0M984 234.1h0M354.2 323.3h0M1094.6 382.4h0M900.6 319.6h0M321.7 116.8h0M791.3 56h0M313.1 363.6h0M910.6 226.6h0M180.3 15.4h0M20.2 198.7h0M182.1 249.8h0M359.1 317h0M944.7 49h0M486.7 50.5h0M942.4 218.6h0M585.9 102.2h0M352.8 342.1h0M876.3 332h0M566.6 307.7h0M964.6 106.8h0M210.4 242.9h0M498.5 76.3h0M630 142.3h0M55.7 228h0M1124.8 332.4h0M18.6 202.2h0M1013.9 10.3h0M1038.2 160.8h0M977.4 151.4h0M63.7 348.4h0M273.4 324.9h0M532 275.5h0M901.8 49.2h0M1083.4 100.1h0M1038.1 266.7h0M34.6 174.6h0M828.4 361.6h0M568.4 348.4h0M585.2 312.2h0" stroke="#ffd9a6" stroke-width="2.1" stroke-linecap="round" fill="none" opacity="0.8"/><animate attributeName="opacity" values="0;0;1;1;0" keyTimes="0;0.12;0.26;0.93;1" dur="9s" repeatCount="indefinite"/></g>
<g opacity="0"><path d="M596.1 42A158.1 158.1 0 0 1 678.7 63M777.5 85.7A211.1 211.1 0 0 1 809.1 170.9M781.9 122.7A197.6 197.6 0 0 1 797.3 210.8M770.8 287.1A191.8 191.8 0 0 1 713.2 354.7M475.3 406.1A240.9 240.9 0 0 1 405.9 342.7M449.9 192.5A150.3 150.3 0 0 1 477.6 112.8M611.9 35.7A164.8 164.8 0 0 1 693.1 64.1M471.7 328.7A181.7 181.7 0 0 1 426.3 253.5M609.5 309A109.5 109.5 0 0 1 533.1 286.7M520.9 333.6A155.3 155.3 0 0 1 462.5 272M691.5 242.3A100.8 100.8 0 0 1 633.5 295.1M763.8 42.3A227.4 227.4 0 0 1 813.1 120.6M734.7 331.9A188.5 188.5 0 0 1 659.7 378.8M611.1 82.1A118.4 118.4 0 0 1 684.1 116.6M469.2 411A248.2 248.2 0 0 1 399.7 346.6" stroke="#ffb0a0" stroke-width="0.9" fill="none" opacity="0.34"/><animate attributeName="opacity" values="0;0;1;1;0" keyTimes="0;0.14;0.3;0.93;1" dur="9s" repeatCount="indefinite"/></g>
<g opacity="0"><path d="M524 200A76 45.6 0 0 1 676 200" stroke="url(#b0)" stroke-width="1.7" fill="none" opacity="0.62" stroke-dasharray="77.6 11.64" stroke-linecap="round"><animate attributeName="stroke-dashoffset" values="0;-89.24" dur="3.2s" repeatCount="indefinite"/></path><path d="M524 200A76 8.74 0 0 1 676 200" stroke="url(#b0)" stroke-width="1.9" fill="none" opacity="0.7" stroke-dasharray="62.03 9.3" stroke-linecap="round"><animate attributeName="stroke-dashoffset" values="0;-71.33" dur="3.2s" repeatCount="indefinite"/></path><path d="M514 200A86 50.05 0 0 1 686 200" stroke="url(#b1)" stroke-width="1.7" fill="none" opacity="0.62" stroke-dasharray="86.98 13.05" stroke-linecap="round"><animate attributeName="stroke-dashoffset" values="0;-100.03" dur="3.85s" repeatCount="indefinite"/></path><path d="M514 200A86 9.89 0 0 1 686 200" stroke="url(#b1)" stroke-width="1.9" fill="none" opacity="0.7" stroke-dasharray="70.19 10.53" stroke-linecap="round"><animate attributeName="stroke-dashoffset" values="0;-80.72" dur="3.85s" repeatCount="indefinite"/></path><path d="M504 200A96 54.14 0 0 1 696 200" stroke="url(#b2)" stroke-width="1.7" fill="none" opacity="0.62" stroke-dasharray="96.18 14.43" stroke-linecap="round"><animate attributeName="stroke-dashoffset" values="0;-110.61" dur="4.54s" repeatCount="indefinite"/></path><path d="M504 200A96 11.04 0 0 1 696 200" stroke="url(#b2)" stroke-width="1.9" fill="none" opacity="0.7" stroke-dasharray="78.35 11.75" stroke-linecap="round"><animate attributeName="stroke-dashoffset" values="0;-90.11" dur="4.54s" repeatCount="indefinite"/></path><path d="M494 200A106 57.88 0 0 1 706 200" stroke="url(#b3)" stroke-width="1.7" fill="none" opacity="0.62" stroke-dasharray="105.2 15.78" stroke-linecap="round"><animate attributeName="stroke-dashoffset" values="0;-120.98" dur="5.27s" repeatCount="indefinite"/></path><path d="M494 200A106 12.19 0 0 1 706 200" stroke="url(#b3)" stroke-width="1.9" fill="none" opacity="0.7" stroke-dasharray="86.52 12.98" stroke-linecap="round"><animate attributeName="stroke-dashoffset" values="0;-99.49" dur="5.27s" repeatCount="indefinite"/></path><path d="M484 200A116 61.25 0 0 1 716 200" stroke="url(#b4)" stroke-width="1.7" fill="none" opacity="0.62" stroke-dasharray="114.04 17.11" stroke-linecap="round"><animate attributeName="stroke-dashoffset" values="0;-131.15" dur="6.03s" repeatCount="indefinite"/></path><path d="M484 200A116 13.34 0 0 1 716 200" stroke="url(#b4)" stroke-width="1.9" fill="none" opacity="0.7" stroke-dasharray="94.68 14.2" stroke-linecap="round"><animate attributeName="stroke-dashoffset" values="0;-108.88" dur="6.03s" repeatCount="indefinite"/></path><path d="M474 200A126 64.26 0 0 1 726 200" stroke="url(#b5)" stroke-width="1.7" fill="none" opacity="0.62" stroke-dasharray="122.71 18.41" stroke-linecap="round"><animate attributeName="stroke-dashoffset" values="0;-141.12" dur="6.83s" repeatCount="indefinite"/></path><path d="M474 200A126 14.49 0 0 1 726 200" stroke="url(#b5)" stroke-width="1.9" fill="none" opacity="0.7" stroke-dasharray="102.84 15.43" stroke-linecap="round"><animate attributeName="stroke-dashoffset" values="0;-118.27" dur="6.83s" repeatCount="indefinite"/></path><path d="M464 200A136 66.91 0 0 1 736 200" stroke="url(#b6)" stroke-width="1.7" fill="none" opacity="0.62" stroke-dasharray="131.22 19.68" stroke-linecap="round"><animate attributeName="stroke-dashoffset" values="0;-150.9" dur="7.66s" repeatCount="indefinite"/></path><path d="M464 200A136 15.64 0 0 1 736 200" stroke="url(#b6)" stroke-width="1.9" fill="none" opacity="0.7" stroke-dasharray="111 16.65" stroke-linecap="round"><animate attributeName="stroke-dashoffset" values="0;-127.65" dur="7.66s" repeatCount="indefinite"/></path><path d="M454 200A146 69.2 0 0 1 746 200" stroke="url(#b7)" stroke-width="1.7" fill="none" opacity="0.62" stroke-dasharray="139.56 20.93" stroke-linecap="round"><animate attributeName="stroke-dashoffset" values="0;-160.49" dur="8.52s" repeatCount="indefinite"/></path><path d="M454 200A146 16.79 0 0 1 746 200" stroke="url(#b7)" stroke-width="1.9" fill="none" opacity="0.7" stroke-dasharray="119.16 17.87" stroke-linecap="round"><animate attributeName="stroke-dashoffset" values="0;-137.04" dur="8.52s" repeatCount="indefinite"/></path><path d="M444 200A156 71.14 0 0 1 756 200" stroke="url(#b8)" stroke-width="1.7" fill="none" opacity="0.62" stroke-dasharray="147.74 22.16" stroke-linecap="round"><animate attributeName="stroke-dashoffset" values="0;-169.9" dur="9.41s" repeatCount="indefinite"/></path><path d="M444 200A156 17.94 0 0 1 756 200" stroke="url(#b8)" stroke-width="1.9" fill="none" opacity="0.7" stroke-dasharray="127.33 19.1" stroke-linecap="round"><animate attributeName="stroke-dashoffset" values="0;-146.42" dur="9.41s" repeatCount="indefinite"/></path><path d="M434 200A166 72.71 0 0 1 766 200" stroke="url(#b9)" stroke-width="1.7" fill="none" opacity="0.62" stroke-dasharray="155.77 23.37" stroke-linecap="round"><animate attributeName="stroke-dashoffset" values="0;-179.13" dur="10.33s" repeatCount="indefinite"/></path><path d="M434 200A166 19.09 0 0 1 766 200" stroke="url(#b9)" stroke-width="1.9" fill="none" opacity="0.7" stroke-dasharray="135.49 20.32" stroke-linecap="round"><animate attributeName="stroke-dashoffset" values="0;-155.81" dur="10.33s" repeatCount="indefinite"/></path><animate attributeName="opacity" values="0;0;1;1;0" keyTimes="0;0.2;0.4;0.93;1" dur="9s" repeatCount="indefinite"/></g>
<circle cx="600" cy="200" r="66" fill="#05060f"/>
<circle cx="600" cy="200" r="69.3" fill="none" stroke="#9fd0ff" stroke-width="9" opacity="0.13"/>
<circle cx="600" cy="200" r="69.3" fill="none" stroke="#f2f8ff" stroke-width="2.4" stroke-dasharray="435.42" stroke-dashoffset="435.42"><animate attributeName="stroke-dashoffset" values="435.42;435.42;0;0;435.42" keyTimes="0;0.34;0.52;0.93;1" dur="9s" calcMode="spline" keySplines="0 0 1 1;.4 0 .2 1;0 0 1 1;.6 0 .9 1" repeatCount="indefinite"/></circle>
<g opacity="0"><path d="M524 200A76 8.74 0 0 0 676 200" stroke="url(#b0)" stroke-width="10.08" fill="none" opacity="0.09" stroke-dasharray="62.03 9.3" stroke-linecap="round"><animate attributeName="stroke-dashoffset" values="0;-71.33" dur="3.2s" repeatCount="indefinite"/></path><path d="M524 200A76 8.74 0 0 0 676 200" stroke="url(#b0)" stroke-width="2.4" fill="none" opacity="0.95" stroke-dasharray="62.03 9.3" stroke-linecap="round"><animate attributeName="stroke-dashoffset" values="0;-71.33" dur="3.2s" repeatCount="indefinite"/></path><path d="M524 200A76 20.52 0 0 0 676 200" stroke="url(#b0)" stroke-width="1.5" fill="none" opacity="0.52" stroke-dasharray="65.77 9.87" stroke-linecap="round"><animate attributeName="stroke-dashoffset" values="0;-75.63" dur="3.2s" repeatCount="indefinite"/></path><path d="M514 200A86 9.89 0 0 0 686 200" stroke="url(#b1)" stroke-width="10.08" fill="none" opacity="0.09" stroke-dasharray="70.19 10.53" stroke-linecap="round"><animate attributeName="stroke-dashoffset" values="0;-80.72" dur="3.85s" repeatCount="indefinite"/></path><path d="M514 200A86 9.89 0 0 0 686 200" stroke="url(#b1)" stroke-width="2.4" fill="none" opacity="0.95" stroke-dasharray="70.19 10.53" stroke-linecap="round"><animate attributeName="stroke-dashoffset" values="0;-80.72" dur="3.85s" repeatCount="indefinite"/></path><path d="M514 200A86 22.45 0 0 0 686 200" stroke="url(#b1)" stroke-width="1.5" fill="none" opacity="0.52" stroke-dasharray="74.13 11.12" stroke-linecap="round"><animate attributeName="stroke-dashoffset" values="0;-85.25" dur="3.85s" repeatCount="indefinite"/></path><path d="M504 200A96 11.04 0 0 0 696 200" stroke="url(#b2)" stroke-width="10.08" fill="none" opacity="0.09" stroke-dasharray="78.35 11.75" stroke-linecap="round"><animate attributeName="stroke-dashoffset" values="0;-90.11" dur="4.54s" repeatCount="indefinite"/></path><path d="M504 200A96 11.04 0 0 0 696 200" stroke="url(#b2)" stroke-width="2.4" fill="none" opacity="0.95" stroke-dasharray="78.35 11.75" stroke-linecap="round"><animate attributeName="stroke-dashoffset" values="0;-90.11" dur="4.54s" repeatCount="indefinite"/></path><path d="M504 200A96 24.19 0 0 0 696 200" stroke="url(#b2)" stroke-width="1.5" fill="none" opacity="0.52" stroke-dasharray="82.42 12.36" stroke-linecap="round"><animate attributeName="stroke-dashoffset" values="0;-94.79" dur="4.54s" repeatCount="indefinite"/></path><path d="M494 200A106 12.19 0 0 0 706 200" stroke="url(#b3)" stroke-width="10.08" fill="none" opacity="0.09" stroke-dasharray="86.52 12.98" stroke-linecap="round"><animate attributeName="stroke-dashoffset" values="0;-99.49" dur="5.27s" repeatCount="indefinite"/></path><path d="M494 200A106 12.19 0 0 0 706 200" stroke="url(#b3)" stroke-width="2.4" fill="none" opacity="0.95" stroke-dasharray="86.52 12.98" stroke-linecap="round"><animate attributeName="stroke-dashoffset" values="0;-99.49" dur="5.27s" repeatCount="indefinite"/></path><path d="M494 200A106 25.76 0 0 0 706 200" stroke="url(#b3)" stroke-width="1.5" fill="none" opacity="0.52" stroke-dasharray="90.66 13.6" stroke-linecap="round"><animate attributeName="stroke-dashoffset" values="0;-104.26" dur="5.27s" repeatCount="indefinite"/></path><path d="M484 200A116 13.34 0 0 0 716 200" stroke="url(#b4)" stroke-width="10.08" fill="none" opacity="0.09" stroke-dasharray="94.68 14.2" stroke-linecap="round"><animate attributeName="stroke-dashoffset" values="0;-108.88" dur="6.03s" repeatCount="indefinite"/></path><path d="M484 200A116 13.34 0 0 0 716 200" stroke="url(#b4)" stroke-width="2.4" fill="none" opacity="0.95" stroke-dasharray="94.68 14.2" stroke-linecap="round"><animate attributeName="stroke-dashoffset" values="0;-108.88" dur="6.03s" repeatCount="indefinite"/></path><path d="M484 200A116 27.14 0 0 0 716 200" stroke="url(#b4)" stroke-width="1.5" fill="none" opacity="0.52" stroke-dasharray="98.84 14.83" stroke-linecap="round"><animate attributeName="stroke-dashoffset" values="0;-113.66" dur="6.03s" repeatCount="indefinite"/></path><path d="M474 200A126 14.49 0 0 0 726 200" stroke="url(#b5)" stroke-width="2.4" fill="none" opacity="0.95" stroke-dasharray="102.84 15.43" stroke-linecap="round"><animate attributeName="stroke-dashoffset" values="0;-118.27" dur="6.83s" repeatCount="indefinite"/></path><path d="M474 200A126 28.35 0 0 0 726 200" stroke="url(#b5)" stroke-width="1.5" fill="none" opacity="0.52" stroke-dasharray="106.96 16.04" stroke-linecap="round"><animate attributeName="stroke-dashoffset" values="0;-123" dur="6.83s" repeatCount="indefinite"/></path><path d="M464 200A136 15.64 0 0 0 736 200" stroke="url(#b6)" stroke-width="2.4" fill="none" opacity="0.95" stroke-dasharray="111 16.65" stroke-linecap="round"><animate attributeName="stroke-dashoffset" values="0;-127.65" dur="7.66s" repeatCount="indefinite"/></path><path d="M464 200A136 29.38 0 0 0 736 200" stroke="url(#b6)" stroke-width="1.5" fill="none" opacity="0.52" stroke-dasharray="115.02 17.25" stroke-linecap="round"><animate attributeName="stroke-dashoffset" values="0;-132.28" dur="7.66s" repeatCount="indefinite"/></path><path d="M454 200A146 16.79 0 0 0 746 200" stroke="url(#b7)" stroke-width="2.4" fill="none" opacity="0.95" stroke-dasharray="119.16 17.87" stroke-linecap="round"><animate attributeName="stroke-dashoffset" values="0;-137.04" dur="8.52s" repeatCount="indefinite"/></path><path d="M454 200A146 30.22 0 0 0 746 200" stroke="url(#b7)" stroke-width="1.5" fill="none" opacity="0.52" stroke-dasharray="123.04 18.46" stroke-linecap="round"><animate attributeName="stroke-dashoffset" values="0;-141.49" dur="8.52s" repeatCount="indefinite"/></path><path d="M444 200A156 17.94 0 0 0 756 200" stroke="url(#b8)" stroke-width="2.4" fill="none" opacity="0.95" stroke-dasharray="127.33 19.1" stroke-linecap="round"><animate attributeName="stroke-dashoffset" values="0;-146.42" dur="9.41s" repeatCount="indefinite"/></path><path d="M444 200A156 30.89 0 0 0 756 200" stroke="url(#b8)" stroke-width="1.5" fill="none" opacity="0.52" stroke-dasharray="131 19.65" stroke-linecap="round"><animate attributeName="stroke-dashoffset" values="0;-150.65" dur="9.41s" repeatCount="indefinite"/></path><path d="M434 200A166 19.09 0 0 0 766 200" stroke="url(#b9)" stroke-width="2.4" fill="none" opacity="0.95" stroke-dasharray="135.49 20.32" stroke-linecap="round"><animate attributeName="stroke-dashoffset" values="0;-155.81" dur="10.33s" repeatCount="indefinite"/></path><path d="M434 200A166 31.37 0 0 0 766 200" stroke="url(#b9)" stroke-width="1.5" fill="none" opacity="0.52" stroke-dasharray="138.92 20.84" stroke-linecap="round"><animate attributeName="stroke-dashoffset" values="0;-159.76" dur="10.33s" repeatCount="indefinite"/></path><animate attributeName="opacity" values="0;0;1;1;0" keyTimes="0;0.22;0.42;0.93;1" dur="9s" repeatCount="indefinite"/></g>
<path d="M40 200L390 200 M810 200L1160 200" stroke="#9e1330" stroke-width="1" fill="none" opacity="0.3" stroke-dasharray="700" stroke-dashoffset="700"><animate attributeName="stroke-dashoffset" values="700;700;0;0;700" keyTimes="0;0;0.24;0.93;1" dur="9s" calcMode="spline" keySplines="0 0 1 1;.4 0 .2 1;0 0 1 1;.6 0 .9 1" repeatCount="indefinite"/></path>
<path d="M40 191L40 209 M68 196L68 204 M96 196L96 204 M124 196L124 204 M152 196L152 204 M180 191L180 209 M208 196L208 204 M236 196L236 204 M264 196L264 204 M292 196L292 204 M320 191L320 209 M348 196L348 204 M376 196L376 204 M824 196L824 204 M852 196L852 204 M880 191L880 209 M908 196L908 204 M936 196L936 204 M964 196L964 204 M992 196L992 204 M1020 191L1020 209 M1048 196L1048 204 M1076 196L1076 204 M1104 196L1104 204 M1132 196L1132 204 M1160 191L1160 209" stroke="#9e1330" stroke-width="1" fill="none" opacity="0.32" stroke-dasharray="268" stroke-dashoffset="268"><animate attributeName="stroke-dashoffset" values="268;268;0;0;268" keyTimes="0;0.02;0.28;0.93;1" dur="9s" calcMode="spline" keySplines="0 0 1 1;.4 0 .2 1;0 0 1 1;.6 0 .9 1" repeatCount="indefinite"/></path>
</svg>
